<?xml version="1.0" encoding="UTF-8"?>
<svg width="73px" height="60px" viewBox="0 0 73 60" version="1.1" xmlns="http://www.w3.org/2000/svg" xmlns:xlink="http://www.w3.org/1999/xlink">
    <!-- Generator: Sketch 49 (51002) - http://www.bohemiancoding.com/sketch -->
    <title>Page 1</title>
    <desc>Created with Sketch.</desc>
    <defs></defs>
    <g id="Page-1" stroke="none" stroke-width="1" fill="none" fill-rule="evenodd">
        <g id="Desktop-HD-Copy-2" transform="translate(-30.000000, -24.000000)" fill="#393EF5">
            <g id="Page-1" transform="translate(30.000000, 24.000000)">
                <path d="M67.3265715,14.6649347 C66.2382676,14.9470673 65.1180477,15.2373029 63.9862538,15.2373029 C63.8007196,15.2373029 63.615536,15.2295682 63.4296511,15.2126255 C60.0184867,14.9036056 57.5658574,12.5493088 55.595126,10.6568843 C53.2750713,8.42928929 52.1948341,7.58104999 50.8284043,8.19319663 C49.8512807,8.62928666 49.2431212,9.44400891 48.4736276,10.4756712 C47.0728266,12.3533629 45.3514617,14.6557267 41,14.8387814 L41,23 L72,23 L72,14.1879612 C71.9070575,14.1850147 71.8130629,14.1798582 71.7173146,14.1640205 C70.2098927,13.9187198 68.7442074,14.2980887 67.3265715,14.6649347" id="Fill-1"></path>
                <path d="M45.7130606,8.5482179 C46.6196882,7.29625027 47.6476671,5.87692353 49.4556614,5.04506143 C53.0323686,3.39879421 55.6512423,5.98925527 57.9614767,8.27459903 C59.7042359,9.99866358 61.5059171,11.7815505 63.7312757,11.988757 C64.4758678,12.0563079 65.4066955,11.8092539 66.4862312,11.5212141 C67.9620876,11.127294 69.7721863,10.6434326 71.788512,10.8734091 C71.8565529,10.8555726 71.9277504,10.8434286 72,10.8339412 L72,0 L41,0 L41,11.5857289 C43.613262,11.4434168 44.5135765,10.2043521 45.7130606,8.5482179" id="Fill-3"></path>
                <path d="M36.5694845,52.0186199 L36.5694845,26 L33,26 L33,52.6083343 L33.0235586,52.6083343 C33.3230383,56.7348899 36.7329669,60 40.8842773,60 L73,60 L73,56.3865537 L40.8842773,56.3865537 C38.5052159,56.3865537 36.5694845,54.4269818 36.5694845,52.0186199" id="Fill-5"></path>
                <path d="M10.6015757,23.2335351 C10.6015757,22.329355 11.3388182,21.5940798 12.2446145,21.5940798 L17.7550253,21.5940798 C18.6611818,21.5940798 19.3984243,22.329355 19.3984243,23.2335351 L19.3984243,37 L23,37 L23,23.2335351 C23,20.3481369 20.6474508,18 17.7550253,18 L12.2446145,18 C9.35254924,18 7,20.3481369 7,23.2335351 L7,37 L10.6015757,37 L10.6015757,23.2335351 Z" id="Fill-7"></path>
                <path d="M72,26 L68.6163457,26 L68.6163457,37.4656689 C68.6163457,38.3795385 67.9237116,39.122761 67.0723842,39.122761 L63.9276158,39.122761 C63.0762884,39.122761 62.3836543,38.3795385 62.3836543,37.4656689 L62.3836543,26 L59,26 L59,37.4656689 C59,38.860618 59.5095783,40.1270373 60.3345133,41.0732209 C59.5095783,42.0186784 59,43.2850976 59,44.6800468 L59,53 L62.3836543,53 L62.3836543,44.6800468 C62.3836543,43.7669033 63.0762884,43.0236808 63.9276158,43.0236808 L67.0723842,43.0236808 C67.9237116,43.0236808 68.6163457,43.7669033 68.6163457,44.6800468 L68.6163457,53 L72,53 L72,44.6800468 C72,43.2850976 71.4904217,42.0186784 70.6654867,41.0732209 C71.4904217,40.1270373 72,38.860618 72,37.4656689 L72,26 Z" id="Fill-9"></path>
                <path d="M46.4205555,52 L51.5794445,52 C54.5686968,52 57,49.708534 57,46.8912096 L57,26 L53.2778579,26 L53.2778579,46.8912096 C53.2778579,47.773838 52.5159354,48.4919382 51.5794445,48.4919382 L46.4205555,48.4919382 C45.4840646,48.4919382 44.7225143,47.773838 44.7225143,46.8912096 L44.7225143,26 L41,26 L41,46.8912096 C41,49.708534 43.4316754,52 46.4205555,52" id="Fill-12"></path>
                <path d="M36.734372,11.1962267 L31.052037,11.1962267 C30.1390314,11.1962267 29.3962164,10.4712504 29.3962164,9.58052474 L29.3962164,5.15735467 C29.3962164,4.26662902 30.1390314,3.54165271 31.052037,3.54165271 L37,3.54165271 L37,0 L31.052037,0 C28.1381121,0 25.7674182,2.31340755 25.7674182,5.15735467 L25.7674182,9.58052474 C25.7674182,10.1450642 25.8643071,10.6872912 26.0370379,11.1962267 L25.496347,11.1962267 L7,11.1962267 L7,14.7378794 L25.496347,14.7378794 L26.0370379,14.7378794 C25.8643071,15.2468149 25.7674182,15.7890419 25.7674182,16.3539355 L25.7674182,37 L29.3962164,37 L29.3962164,16.3539355 C29.3962164,15.4628557 30.1390314,14.7378794 31.052037,14.7378794 L36.734372,14.7378794 L36.734372,11.1962267 Z" id="Fill-14"></path>
                <polygon id="Fill-16" points="1 15 4 15 4 12 1 12"></polygon>
                <polygon id="Fill-18" points="1 38 4 38 4 19 1 19"></polygon>
                <polygon id="Fill-19" points="0 59 30 59 30 41 0 41"></polygon>
            </g>
        </g>
    </g>
</svg>